Patient4_TMGait_0pt6_01_left_20_EMG.mot
version=1
nRows=16
nColumns=33
inDegrees=no
endheader
time	1LAddLong	2LGlutMax	3LGlutMed	4LIliopsoas	5LSemiMemb	6LBicFemLong	7LRecFem	8LVastMed	9LVastLat	10LGasMed	11LTibAnt	12lTibPost	13LPeroneusLong	14LSol	15LExtDigLong	16LFlexDigLong	17RAddLong	18RGlutMax	19RGlutMed	20RIliopsoas	21RSemiMemb	22RBicFemLong	23RRecFem	24RVastMed	25RVastLat	26RGasMed	27RTibAnt	28RTibPost	29RPeroneusLong	30RSol	31RExtDigLong	32RFlexDigLong
24.715	0.018158	0.86319	0.16815	0.013885	-0.25253	-0.2327	0.076447	0.028229	-0.063934	0.27756	0.005341	-0.017548	0.060272	-0.14069	-0.044861	0.54504	-0.084686	0.62515	0.097656	-0.018768	-0.051422	0.052185	0.49515	0.12222	0.071106	-0.00946	-0.20813	-0.022125	-0.003662	-0.009766	-0.003052	-0.010681
24.716	0.022888	0.84091	0.25299	-0.002899	-0.25253	-0.19943	0.159	0.068359	-0.055847	0.46204	0.003204	-0.004272	0.67062	-0.43839	-0.046692	0.089569	-0.12268	0.58044	0.041656	-0.09079	-0.082703	0.041351	0.466	0.071869	0.056305	-0.00885	-0.8078	-0.02243	0.050354	-0.11139	0.000305	-0.018921
24.717	0.022888	0.86884	0.17487	0.005188	-0.17654	-0.12375	0.22964	0.040436	-0.00824	0.56717	-0.004578	0.11612	0.80902	-0.70343	-0.063171	-0.24643	-0.12955	0.53482	-0.027618	-0.039825	-0.032196	0.061951	0.45456	0.081482	0.05188	-0.004883	-0.76462	-0.020142	0.063324	-0.21072	-0.000458	-0.010376
24.718	0.021515	0.89401	0.10666	0.014801	-0.15335	-0.12497	0.1297	0.010071	-0.007324	0.77225	0.007477	0.15595	0.55054	-0.86304	0.056152	-0.062408	-0.080719	0.50278	0.011444	-0.017242	-0.00946	0.071106	0.46814	0.029907	0.035706	-0.011749	-0.14923	-0.022583	0.028992	-0.20264	0.004425	-0.003815
24.719	0.029907	0.95001	0.12634	0.016022	0.12497	-0.112	0.061493	-0.008545	-0.038605	1.0619	0.003815	-0.029449	0.62012	-0.66666	0.076447	0.18341	-0.042877	0.41397	0.03006	-0.020447	-0.02121	0.03891	0.4628	-0.062714	0.032654	-0.016479	0.26428	-0.018921	-0.003967	-0.10132	0.002136	-0.001221
24.72	0.042877	1.0211	0.14648	-0.007782	0.15228	-0.12894	0.01709	-0.035553	-0.068665	0.93597	0.002441	-0.041656	0.5069	-0.12512	0.044861	0.066681	0.009918	0.34103	-0.024109	-0.009613	-0.047913	-0.044403	0.46249	-0.057678	0.018616	-0.015564	0.29312	-0.024719	-0.016022	-0.090027	0.000458	-0.011139
24.721	0.034027	1.0121	0.15717	0.005035	0.11978	-0.11932	0.002136	-0.031891	-0.084839	-0.17624	-0.006256	0.018463	0.040741	0.29129	0.045776	-0.009766	0.011597	0.31036	-0.037079	0.000458	-0.098267	-0.14297	0.47882	-0.049438	0.043488	-0.019836	0.439	-0.023499	-0.14526	-0.090942	-0.003052	-0.010223
24.722	0.021667	1.0406	0.13443	0.009613	0.086212	-0.20386	-0.038605	-0.03479	-0.059204	-0.62576	0.022278	0.018616	-0.084534	0.57144	-0.027466	-0.037994	-0.050354	0.25482	-0.098267	0.024414	-0.24414	-0.10361	0.44662	-0.10361	0.04425	-0.01297	0.39169	-0.019989	-0.059204	-0.071869	0.007935	-0.01709
24.723	0.018158	0.94193	0.063477	0.007935	0.042725	-0.21301	-0.081024	-0.018616	-0.093079	-0.49423	-0.010834	-0.035248	0.12299	0.55145	-0.12573	-0.02655	-0.061493	0.12589	-0.10422	0.039978	-0.36896	-0.17181	0.4657	-0.11948	0.03418	-0.010834	0.21027	-0.019836	0.068512	-0.084839	-0.00061	-0.007935
24.724	0.009613	0.89935	-0.002899	0.009613	-0.003967	-0.13275	-0.074463	-0.011444	-0.075989	-0.5838	-0.045319	0.071259	-0.63156	0.44159	-0.14679	-0.006561	-0.035248	0.15396	-0.11444	0.037689	-0.45456	-0.22827	0.44037	-0.12299	0.052643	-0.015106	0.28351	-0.016632	0.048981	-0.055084	0.000153	-0.005798
24.725	0.014343	0.89294	0.026245	0.023041	-0.046387	-0.13977	-0.082397	0.000305	0.027313	-0.47745	-0.03418	0.12497	-0.09613	0.32608	-0.18921	-0.00946	0.021057	0.15686	-0.12909	0.045013	-0.48508	-0.11414	0.41016	-0.10208	0.056763	-0.016479	0.020142	-0.014038	-0.08316	0.02182	-0.00061	-0.019379
24.726	0.007629	0.90714	0.11932	0.006256	-0.006256	-0.068817	-0.080719	0.007324	0.14603	-0.38635	-0.024872	0.14084	-0.068207	0.57236	0.024567	-0.028992	0.075073	0.15671	-0.14114	-0.007782	-0.4744	-0.09613	0.46631	-0.19898	0.046082	-0.012054	-0.46326	-0.014191	-0.26764	0.11887	0.011444	-0.013275
24.727	0.015259	0.90881	0.14084	-0.004578	0.021515	0.097351	-0.13794	0.007477	0.20371	-0.18677	-0.034637	-0.069733	-0.17944	0.26108	-0.054169	-0.003204	0.076294	0.12787	-0.10803	-0.025024	-0.37506	0.03006	0.44983	-0.075684	0.044708	-0.014496	-0.15274	-0.009766	-0.29739	0.07782	-0.002594	-0.011597
24.728	0.026855	0.91934	0.007935	0.031128	0.045776	0.33829	-0.21347	0.006409	0.17731	-0.086975	-0.002747	-0.037842	-0.15854	0.059814	-0.15396	-0.000763	0.092773	0.11826	-0.12299	-0.096741	-0.15274	0.18005	0.51086	-0.071259	0.022125	-0.017242	0.54352	-0.012054	-0.159	0.007477	0.000916	-0.010376
24.729	0.014954	0.88226	-0.18372	0.025787	0.01297	0.43198	-0.28427	0.016022	-0.008087	-0.083771	0.011597	-0.045776	-0.44357	0.12802	-0.059967	-0.002594	0.10864	0.078888	-0.032654	-0.035095	-0.052948	0.19134	0.55237	-0.082703	0.016174	-0.011597	0.49133	-0.006866	0.21759	-0.035858	-0.001373	-0.017548
24.73	0.011444	0.87235	-0.28168	0.013733	-0.014954	0.29388	-0.31326	0.015869	-0.091705	-0.11231	0.014496	-0.014191	-0.39536	0.099487	0.077209	-0.010071	0.12222	0.063782	-0.010529	-0.014954	0.14694	0.076141	0.53451	-0.046539	0.008392	-0.012817	-0.073547	-0.011749	0.40924	-0.044708	0.007629	-0.016174
